G04 Layer: TopLayer*
G04 EasyEDA v6.3.43, 2020-05-24T14:32:55--3:00*
G04 a60beb115e6d4cc6af766ae4472ff299,4133ba2459604e99bbbe5cdf154db1fe,10*
G04 Gerber Generator version 0.2*
G04 Scale: 100 percent, Rotated: No, Reflected: No *
G04 Dimensions in millimeters *
G04 leading zeros omitted , absolute positions ,3 integer and 3 decimal *
%FSLAX33Y33*%
%MOMM*%
G90*
G71D02*

%ADD11C,0.610006*%
%ADD12C,1.574800*%
%ADD13R,1.574800X1.574800*%
%ADD14R,1.999996X1.999996*%
%ADD15R,1.599997X1.599997*%
%ADD16C,1.799996*%
%ADD17C,1.999996*%
%ADD18R,1.524000X1.524000*%
%ADD19C,1.879600*%
%ADD20R,1.879600X1.879600*%

%LPD*%
G54D12*
G01X9141Y4064D03*
G01X9141Y6604D03*
G01X9141Y9144D03*
G01X9141Y11684D03*
G01X9141Y14224D03*
G54D13*
G01X9141Y16764D03*
G01X75435Y52070D03*
G54D12*
G01X72895Y52070D03*
G01X70355Y52070D03*
G01X67815Y52070D03*
G54D14*
G01X65275Y52070D03*
G54D12*
G01X62735Y52070D03*
G01X60195Y52070D03*
G01X57655Y52070D03*
G54D13*
G01X52702Y52070D03*
G54D12*
G01X50162Y52070D03*
G01X47622Y52070D03*
G01X45082Y52070D03*
G01X42542Y52070D03*
G01X40002Y52070D03*
G01X37462Y52070D03*
G01X34922Y52070D03*
G54D15*
G01X16380Y4445D03*
G54D16*
G01X18920Y4445D03*
G54D17*
G01X21460Y4445D03*
G01X24000Y4445D03*
G01X26540Y4445D03*
G01X29080Y4445D03*
G01X31620Y4445D03*
G01X34160Y4445D03*
G54D12*
G01X33779Y47879D03*
G01X33779Y45339D03*
G54D18*
G01X33779Y42799D03*
G54D17*
G01X83817Y4064D03*
G01X81277Y4064D03*
G01X78737Y4064D03*
G01X76197Y4064D03*
G01X73657Y4064D03*
G01X71117Y4064D03*
G01X68577Y4064D03*
G01X66037Y4064D03*
G01X63497Y4064D03*
G54D13*
G01X60957Y4064D03*
G54D12*
G01X26667Y26543D03*
G01X24127Y26543D03*
G54D13*
G01X21587Y26543D03*
G54D12*
G01X19047Y26543D03*
G54D13*
G01X15745Y42164D03*
G54D12*
G01X18285Y42164D03*
G01X20825Y42164D03*
G01X23365Y42164D03*
G54D13*
G01X15999Y32258D03*
G54D12*
G01X18539Y32258D03*
G01X21079Y32258D03*
G01X23619Y32258D03*
G54D13*
G01X7363Y33147D03*
G54D12*
G01X7363Y30607D03*
G01X7363Y28067D03*
G01X7363Y25527D03*
G54D19*
G01X29207Y23114D03*
G54D20*
G01X21587Y23114D03*
G54D19*
G01X24889Y19431D03*
G54D20*
G01X17269Y19431D03*
G54D11*
G01X62862Y42037D03*
G01X34414Y42037D03*
M00*
M02*
