;Layer: Drill PTH
;EasyEDA v6.3.43, 2020-05-24T14:32:55--3:00
;a60beb115e6d4cc6af766ae4472ff299,4133ba2459604e99bbbe5cdf154db1fe,10
;Gerber Generator version 0.2
M48
METRIC,LZ,000.000
;Holesize 1 = 0.306 METRIC
T01C0.306
;Holesize 2 = 0.889 METRIC
T02C0.889
;Holesize 3 = 0.900 METRIC
T03C0.900
;Holesize 4 = 0.915 METRIC
T04C0.915
%
G05
G90
T01
X+062862Y+042037
X+034414Y+042037
T02
X+009141Y+004064
X+009141Y+006604
X+009141Y+009144
X+009141Y+011684
X+009141Y+014224
X+009141Y+016764
X+075435Y+052070
X+072895Y+052070
X+070355Y+052070
X+067815Y+052070
X+065275Y+052070
X+062735Y+052070
X+060195Y+052070
X+057655Y+052070
X+052702Y+052070
X+050162Y+052070
X+047622Y+052070
X+045082Y+052070
X+042542Y+052070
X+040002Y+052070
X+037462Y+052070
X+034922Y+052070
X+016380Y+004445
X+018920Y+004445
X+021460Y+004445
X+024000Y+004445
X+026540Y+004445
X+029080Y+004445
X+031620Y+004445
X+034160Y+004445
X+033779Y+047879
X+033779Y+045339
X+083817Y+004064
X+081277Y+004064
X+078737Y+004064
X+076197Y+004064
X+073657Y+004064
X+071117Y+004064
X+068577Y+004064
X+066037Y+004064
X+063497Y+004064
X+060957Y+004064
X+026667Y+026543
X+024127Y+026543
X+021587Y+026543
X+019047Y+026543
X+015745Y+042164
X+018285Y+042164
X+020825Y+042164
X+023365Y+042164
X+015999Y+032258
X+018539Y+032258
X+021079Y+032258
X+023619Y+032258
X+007363Y+033147
X+007363Y+030607
X+007363Y+028067
X+007363Y+025527
T03
X+029207Y+023114
X+021587Y+023114
X+024889Y+019431
X+017269Y+019431
T04
X+033779Y+042799
M30
